<svg width="48" height="39" viewBox="0 0 48 39" fill="none" xmlns="http://www.w3.org/2000/svg">
<path d="M14.7855 23.5162C14.6146 23.6539 14.4444 23.7915 14.275 23.9291C13.7724 24.3361 13.2685 24.7415 12.7686 25.1521C12.1171 25.6868 11.4703 26.2271 10.8192 26.7623C10.027 27.413 9.2339 28.0625 8.43986 28.7108C7.9749 29.0918 7.51387 29.478 7.04616 29.8562C6.37581 30.3985 5.7255 30.9699 5.02256 31.4661C4.06004 32.1456 2.98051 32.4016 1.82046 32.0764C0.977722 31.8405 0.404371 31.2817 0.127123 30.4461C-0.0759044 29.8338 -0.0217072 29.2208 0.190352 28.6184C0.48488 27.7808 1.01228 27.1158 1.7105 26.5803C3.35436 25.3193 4.99834 24.0586 6.64246 22.7982C8.00095 21.7554 9.35839 20.7113 10.7148 19.6661C11.9623 18.7051 13.209 17.7426 14.4549 16.7787C15.2665 16.1534 16.0781 15.5292 16.8897 14.9061C17.551 14.3989 18.2128 13.8922 18.8752 13.3863C18.9118 13.3608 18.95 13.3376 18.9894 13.3167L18.9615 13.2577C18.9095 13.2495 18.8571 13.244 18.8045 13.2412C16.1537 13.2467 13.503 13.2565 10.8526 13.2561C10.1411 13.2561 9.42397 13.2738 8.71946 13.1936C7.96351 13.1075 7.35089 12.7178 7.02063 11.9966C6.77126 11.4516 6.83331 10.8995 7.09367 10.3694C7.41216 9.7214 7.92778 9.28296 8.56317 8.95618C9.19856 8.62941 9.8744 8.51223 10.5848 8.51262C16.756 8.51577 22.9276 8.51577 29.0996 8.51262H29.3662L29.3949 8.44971C29.2472 8.32191 29.1035 8.18978 28.9519 8.0667C28.0246 7.31223 27.0964 6.55854 26.1673 5.80564C25.2342 5.0454 24.302 4.28516 23.3708 3.52492C23.0449 3.2591 22.7284 2.9803 22.5956 2.56426C22.3718 1.86235 22.6054 1.28037 23.1191 0.799063C23.7898 0.169898 24.6067 -0.0334009 25.5052 0.00434895C26.245 0.035414 26.8549 0.344491 27.42 0.803781C28.0836 1.34368 28.7744 1.84977 29.4518 2.37237C30.3861 3.09394 31.3183 3.82063 32.2553 4.54023C33.2296 5.28737 34.209 6.03135 35.1837 6.78163C36.1482 7.52208 37.108 8.26764 38.0724 9.00927C39.1135 9.81027 40.1494 10.618 41.1995 11.408C42.563 12.4323 43.8581 13.5278 44.9023 14.8892C45.1953 15.271 45.4403 15.689 45.7199 16.0815C46.1664 16.7067 46.5097 17.3882 46.8152 18.0869C47.1864 18.9366 47.4731 19.8208 47.6713 20.7267C47.9051 21.7951 48.0148 22.887 47.9984 23.9806C47.9856 24.9305 47.874 25.8765 47.6654 26.8032C47.4192 27.9177 47.0377 28.9978 46.5293 30.0194C46.1207 30.8337 45.6409 31.61 45.0955 32.3395C44.1819 33.562 43.0988 34.6477 41.8789 35.5639C40.3643 36.7043 38.698 37.5541 36.8967 38.1455C35.966 38.445 35.0141 38.6743 34.0492 38.8313C33.7143 38.8887 33.376 38.9236 33.0364 38.9359C32.0971 38.9673 31.1554 39.024 30.2176 38.989C29.4577 38.9603 28.6955 38.8498 27.9466 38.7086C27.174 38.5569 26.4096 38.3661 25.6563 38.1368C25.1136 37.9714 24.5826 37.7695 24.0671 37.5324C23.4627 37.2595 22.8654 36.9634 22.2909 36.6327C21.3689 36.1027 20.5041 35.4787 19.71 34.7708C18.5029 33.6961 17.4571 32.4842 16.632 31.0906C15.9943 30.0131 15.4818 28.8799 15.1531 27.666C14.9069 26.7556 14.7235 25.8367 14.7341 24.891C14.7384 24.4938 14.8009 24.0974 14.8354 23.7003C14.8401 23.6495 14.8354 23.5984 14.8354 23.5473L14.7855 23.5162ZM21.0657 22.5835C21.1096 23.0518 21.1238 23.5272 21.2035 23.9877C21.3715 24.9785 21.7143 25.9315 22.2159 26.802C22.9248 28.0379 23.9008 29.0993 25.0724 29.9085C26.4813 30.8925 28.1096 31.5156 29.8147 31.7233C31.0419 31.8849 32.2873 31.845 33.5018 31.6053C35.06 31.2943 36.4883 30.6765 37.7657 29.7222C38.7832 28.962 39.6377 28.0478 40.2865 26.9554C40.9541 25.8304 41.3652 24.6173 41.4799 23.3011C41.5752 22.2434 41.476 21.1772 41.1874 20.1553C40.9079 19.1793 40.4599 18.2598 39.8636 17.4385C39.0267 16.2698 37.9727 15.3453 36.7298 14.6415C35.5406 13.9666 34.2328 13.5271 32.8778 13.347C31.9705 13.2199 31.0511 13.2032 30.1398 13.2974C29.014 13.4181 27.9179 13.6785 26.8839 14.157C26.5246 14.3233 26.1543 14.4759 25.8193 14.6835C25.1942 15.0637 24.6051 15.5001 24.0592 15.9875C23.2067 16.7541 22.5058 17.6746 21.9932 18.7008C21.3887 19.9059 21.0712 21.2349 21.0657 22.5835Z" fill="white"/>
<path d="M31.7061 16.4211C33.6233 16.4679 35.4286 17.1704 36.7898 18.773C38.7374 21.0651 38.5045 24.291 36.2746 26.3245C35.1622 27.3402 33.8441 27.9212 32.3351 28.0751C30.3209 28.281 28.5008 27.8016 26.9578 26.4952C25.5311 25.286 24.8078 23.744 24.9428 21.8851C25.067 20.1689 25.9129 18.8144 27.2993 17.783C28.5439 16.8539 29.9674 16.4367 31.7061 16.4211Z" fill="white"/>
</svg>
